HIERARCHY
ROOT Hips
{
	OFFSET 0.000000 100.481300 0.000000
	CHANNELS 6 Xposition Yposition Zposition Xrotation Yrotation Zrotation
	JOINT Spine
	{
		OFFSET -0.279200 12.230698 -2.892100
		CHANNELS 3 Xrotation Yrotation Zrotation
		JOINT Spine1
		{
			OFFSET -0.325700 14.269203 -3.374200
			CHANNELS 3 Xrotation Yrotation Zrotation
			JOINT Spine2
			{
				OFFSET -0.372300 16.307602 -0.352600
				CHANNELS 3 Xrotation Yrotation Zrotation
				JOINT Neck
				{
					OFFSET -0.418800 17.814194 8.416900
					CHANNELS 3 Xrotation Yrotation Zrotation
					JOINT Head
					{
						OFFSET 0.000000 7.031097 3.806800
						CHANNELS 3 Xrotation Yrotation Zrotation
						JOINT HeadTop_End
						{
							OFFSET 0.000000 24.646606 12.978600
							CHANNELS 3 Xrotation Yrotation Zrotation
							End Site
							{
								OFFSET 0.000000 27.854965 0.000000
							}
						}
					}
				}
				JOINT LeftShoulder
				{
					OFFSET 16.952999 14.495407 -7.737500
					CHANNELS 3 Xrotation Yrotation Zrotation
					JOINT LeftArm
					{
						OFFSET 9.308998 -2.777710 0.208600
						CHANNELS 3 Xrotation Yrotation Zrotation
						JOINT LeftForeArm
						{
							OFFSET 29.972298 0.000000 0.000000
							CHANNELS 3 Xrotation Yrotation Zrotation
							JOINT LeftHand
							{
								OFFSET 26.026505 0.000000 0.000000
								CHANNELS 3 Xrotation Yrotation Zrotation
								JOINT LeftHandThumb1
								{
									OFFSET 12.240501 -7.147949 9.207150
									CHANNELS 3 Xrotation Yrotation Zrotation
									JOINT LeftHandThumb2
									{
										OFFSET 4.138618 -2.389435 2.389433
										CHANNELS 3 Xrotation Yrotation Zrotation
										JOINT LeftHandThumb3
										{
											OFFSET 2.726913 -1.574387 1.574386
											CHANNELS 3 Xrotation Yrotation Zrotation
											JOINT LeftHandThumb4
											{
												OFFSET 3.941010 -2.275345 2.275342
												CHANNELS 3 Xrotation Yrotation Zrotation
												End Site
												{
													OFFSET -0.005798 5.087799 0.009903
												}
											}
										}
									}
								}
								JOINT LeftHandIndex1
								{
									OFFSET 24.424698 -1.985611 5.953459
									CHANNELS 3 Xrotation Yrotation Zrotation
									JOINT LeftHandIndex2
									{
										OFFSET 6.426697 0.000000 0.000000
										CHANNELS 3 Xrotation Yrotation Zrotation
										JOINT LeftHandIndex3
										{
											OFFSET 5.337898 0.000000 0.000000
											CHANNELS 3 Xrotation Yrotation Zrotation
											JOINT LeftHandIndex4
											{
												OFFSET 4.409401 0.000000 0.000000
												CHANNELS 3 Xrotation Yrotation Zrotation
												End Site
												{
													OFFSET 0.000000 4.409363 0.014373
												}
											}
										}
									}
								}
								JOINT LeftHandMiddle1
								{
									OFFSET 23.810104 0.000000 0.000000
									CHANNELS 3 Xrotation Yrotation Zrotation
									JOINT LeftHandMiddle2
									{
										OFFSET 7.176498 0.000000 0.000000
										CHANNELS 3 Xrotation Yrotation Zrotation
										JOINT LeftHandMiddle3
										{
											OFFSET 6.774902 0.000000 0.000000
											CHANNELS 3 Xrotation Yrotation Zrotation
											JOINT LeftHandMiddle4
											{
												OFFSET 5.403328 0.000000 0.000000
												CHANNELS 3 Xrotation Yrotation Zrotation
												End Site
												{
													OFFSET -0.027702 5.403244 0.017414
												}
											}
										}
									}
								}
								JOINT LeftHandRing1
								{
									OFFSET 22.908401 -0.839279 -6.020567
									CHANNELS 3 Xrotation Yrotation Zrotation
									JOINT LeftHandRing2
									{
										OFFSET 6.337502 0.000000 0.000000
										CHANNELS 3 Xrotation Yrotation Zrotation
										JOINT LeftHandRing3
										{
											OFFSET 5.779297 0.000000 0.000000
											CHANNELS 3 Xrotation Yrotation Zrotation
											JOINT LeftHandRing4
											{
												OFFSET 4.965698 0.000000 0.000000
												CHANNELS 3 Xrotation Yrotation Zrotation
												End Site
												{
													OFFSET 0.000000 4.965668 0.016186
												}
											}
										}
									}
								}
								JOINT LeftHandPinky1
								{
									OFFSET 20.037003 -1.530319 -10.950146
									CHANNELS 3 Xrotation Yrotation Zrotation
									JOINT LeftHandPinky2
									{
										OFFSET 5.254700 0.000000 0.000000
										CHANNELS 3 Xrotation Yrotation Zrotation
										JOINT LeftHandPinky3
										{
											OFFSET 4.810204 0.000000 0.000000
											CHANNELS 3 Xrotation Yrotation Zrotation
											JOINT LeftHandPinky4
											{
												OFFSET 3.647202 0.000000 0.000000
												CHANNELS 3 Xrotation Yrotation Zrotation
												End Site
												{
													OFFSET 0.000000 3.647186 0.011889
												}
											}
										}
									}
								}
							}
						}
					}
				}
				JOINT RightShoulder
				{
					OFFSET -15.141001 14.495407 -7.737500
					CHANNELS 3 Xrotation Yrotation Zrotation
					JOINT RightArm
					{
						OFFSET -9.308998 -2.777710 0.208500
						CHANNELS 3 Xrotation Yrotation Zrotation
						JOINT RightForeArm
						{
							OFFSET -29.972300 0.000000 0.000000
							CHANNELS 3 Xrotation Yrotation Zrotation
							JOINT RightHand
							{
								OFFSET -26.026505 0.000000 0.000000
								CHANNELS 3 Xrotation Yrotation Zrotation
								JOINT RightHandThumb1
								{
									OFFSET -12.240601 -7.148026 9.207092
									CHANNELS 3 Xrotation Yrotation Zrotation
									JOINT RightHandThumb2
									{
										OFFSET -4.138618 -2.389435 2.389433
										CHANNELS 3 Xrotation Yrotation Zrotation
										JOINT RightHandThumb3
										{
											OFFSET -2.726974 -1.574417 1.574421
											CHANNELS 3 Xrotation Yrotation Zrotation
											JOINT RightHandThumb4
											{
												OFFSET -3.941010 -2.275345 2.275343
												CHANNELS 3 Xrotation Yrotation Zrotation
												End Site
												{
													OFFSET 0.005814 5.087799 0.009927
												}
											}
										}
									}
								}
								JOINT RightHandIndex1
								{
									OFFSET -24.424698 -1.985657 5.953444
									CHANNELS 3 Xrotation Yrotation Zrotation
									JOINT RightHandIndex2
									{
										OFFSET -6.426697 0.000000 0.000000
										CHANNELS 3 Xrotation Yrotation Zrotation
										JOINT RightHandIndex3
										{
											OFFSET -5.337898 0.000000 0.000000
											CHANNELS 3 Xrotation Yrotation Zrotation
											JOINT RightHandIndex4
											{
												OFFSET -4.409401 0.000000 0.000000
												CHANNELS 3 Xrotation Yrotation Zrotation
												End Site
												{
													OFFSET 0.000000 4.409363 0.014408
												}
											}
										}
									}
								}
								JOINT RightHandMiddle1
								{
									OFFSET -23.810097 0.000000 0.000000
									CHANNELS 3 Xrotation Yrotation Zrotation
									JOINT RightHandMiddle2
									{
										OFFSET -7.176498 0.000000 0.000000
										CHANNELS 3 Xrotation Yrotation Zrotation
										JOINT RightHandMiddle3
										{
											OFFSET -6.774902 0.000000 0.000000
											CHANNELS 3 Xrotation Yrotation Zrotation
											JOINT RightHandMiddle4
											{
												OFFSET -5.403328 0.000000 0.000000
												CHANNELS 3 Xrotation Yrotation Zrotation
												End Site
												{
													OFFSET 0.027702 5.403244 0.017457
												}
											}
										}
									}
								}
								JOINT RightHandRing1
								{
									OFFSET -22.908302 -0.839325 -6.020576
									CHANNELS 3 Xrotation Yrotation Zrotation
									JOINT RightHandRing2
									{
										OFFSET -6.337502 0.000000 0.000000
										CHANNELS 3 Xrotation Yrotation Zrotation
										JOINT RightHandRing3
										{
											OFFSET -5.779297 0.000000 0.000000
											CHANNELS 3 Xrotation Yrotation Zrotation
											JOINT RightHandRing4
											{
												OFFSET -4.965698 0.000000 0.000000
												CHANNELS 3 Xrotation Yrotation Zrotation
												End Site
												{
													OFFSET 0.000000 4.965668 0.016226
												}
											}
										}
									}
								}
								JOINT RightHandPinky1
								{
									OFFSET -20.037003 -1.530334 -10.950259
									CHANNELS 3 Xrotation Yrotation Zrotation
									JOINT RightHandPinky2
									{
										OFFSET -5.254700 0.000000 0.000000
										CHANNELS 3 Xrotation Yrotation Zrotation
										JOINT RightHandPinky3
										{
											OFFSET -4.810204 0.000000 0.000000
											CHANNELS 3 Xrotation Yrotation Zrotation
											JOINT RightHandPinky4
											{
												OFFSET -3.647202 0.000000 0.000000
												CHANNELS 3 Xrotation Yrotation Zrotation
												End Site
												{
													OFFSET 0.000000 3.647186 0.011917
												}
											}
										}
									}
								}
							}
						}
					}
				}
			}
		}
	}
	JOINT LeftUpLeg
	{
		OFFSET 15.427100 -6.655098 0.678600
		CHANNELS 3 Xrotation Yrotation Zrotation
		JOINT LeftLeg
		{
			OFFSET 4.081073 -39.591068 13.024000
			CHANNELS 3 Xrotation Yrotation Zrotation
			JOINT LeftFoot
			{
				OFFSET -4.081074 -37.707932 -15.979700
				CHANNELS 3 Xrotation Yrotation Zrotation
				JOINT LeftToeBase
				{
					OFFSET 5.346399 -15.068900 20.645000
					CHANNELS 3 Xrotation Yrotation Zrotation
					JOINT LeftToe_End
					{
						OFFSET 2.754700 0.931300 11.300900
						CHANNELS 3 Xrotation Yrotation Zrotation
						End Site
						{
							OFFSET 0.000000 11.669021 0.000000
						}
					}
				}
			}
		}
	}
	JOINT RightUpLeg
	{
		OFFSET -15.569500 -6.655098 0.678600
		CHANNELS 3 Xrotation Yrotation Zrotation
		JOINT RightLeg
		{
			OFFSET -4.081825 -39.591045 13.023800
			CHANNELS 3 Xrotation Yrotation Zrotation
			JOINT RightFoot
			{
				OFFSET 4.081824 -37.707954 -15.979600
				CHANNELS 3 Xrotation Yrotation Zrotation
				JOINT RightToeBase
				{
					OFFSET -5.346400 -15.068900 20.645000
					CHANNELS 3 Xrotation Yrotation Zrotation
					JOINT RightToe_End
					{
						OFFSET -2.754700 0.931300 11.300900
						CHANNELS 3 Xrotation Yrotation Zrotation
						End Site
						{
							OFFSET 0.000000 11.669021 0.000000
						}
					}
				}
			}
		}
	}
}
MOTION
Frames: 4
Frame Time: 0.033333
3.643575 95.361671 43.818417 -6.075988 1.157084 -1.955898 6.939466 1.065144 1.096664 4.474035 0.661079 0.166077 1.915577 0.738297 0.247255 -1.586011 1.326194 -0.903866 -12.315567 -2.218964 -5.430218 0.000000 -0.000000 -0.000000 0.794742 -10.687519 -6.654383 -5.313596 -23.587211 -70.326175 -0.000000 -25.944125 -0.000007 20.870656 6.975168 24.738995 19.535857 -7.072377 0.985798 6.563193 27.788941 -12.254399 65.858125 58.822183 -31.632399 0.000000 0.000002 0.000000 5.384511 3.232392 -88.559113 4.489699 5.691026 -76.523097 3.809287 5.484405 -69.543805 0.000001 0.000000 -0.000000 2.124998 8.014325 -87.001071 4.473157 5.687050 -76.356249 1.731114 4.158226 -45.190219 -0.000001 0.000000 -0.000001 -0.300910 8.317495 -90.957014 4.416069 5.672958 -75.779351 2.088392 4.483962 -49.929287 0.000000 0.000001 0.000000 -3.927756 9.842675 -98.602701 5.143536 5.808278 -83.042594 3.703810 5.444082 -68.436201 -0.000001 0.000000 -0.000001 3.618025 3.374141 1.048466 -12.972431 -5.329939 54.686453 0.000008 106.414463 -0.000036 -1.019723 28.152879 -9.625494 12.702969 4.507186 -4.371036 5.740653 -28.159902 17.527109 39.537073 -56.768103 8.600385 -0.000002 0.000003 0.000000 3.490472 -1.723599 69.166177 2.617638 -4.187718 64.003155 1.992917 -3.821193 55.075292 0.000000 0.000003 -0.000001 0.648365 -5.521625 64.843733 2.711425 -4.232046 65.280366 0.848171 -2.681658 35.097163 -0.000000 -0.000002 -0.000001 0.107286 -5.472879 68.426686 2.374457 -4.060442 60.622526 1.088990 -2.994809 39.957723 0.000001 -0.000000 -0.000000 -3.593187 -8.494686 75.483610 2.639863 -4.198452 64.306982 1.912382 -3.763789 53.857735 0.000003 -0.000000 0.000002 -6.848303 12.280312 13.495746 16.168460 0.775366 0.054443 -4.647471 -5.945431 -8.394997 -0.103125 0.000002 0.000000 0.000000 -0.000001 -0.000000 -2.186022 -5.565571 -11.146292 11.021454 -5.181015 -0.665251 -0.673602 -1.894360 12.947534 -0.196058 0.000006 -0.000002 -0.000000 0.000001 0.000000 
3.687884 95.157425 44.039467 -5.581390 1.993078 -1.687664 6.747470 1.182560 1.066912 4.423404 0.914353 0.201122 0.529884 0.981298 0.310548 -1.167599 1.217748 -0.918677 -11.552231 -2.754951 -5.356136 -0.000000 -0.000000 0.000000 0.770222 -10.628578 -6.880330 -8.931445 -24.346281 -72.593641 0.000001 -25.905675 0.000016 21.711426 5.683925 24.178265 19.342092 -6.638940 1.958648 6.369712 27.636072 -12.895329 50.049666 55.159925 -20.952585 -0.000000 0.000000 -0.000001 5.267838 3.270352 -85.940200 4.252654 5.629215 -74.120141 3.590950 5.398337 -67.241587 -0.000001 0.000001 -0.000001 2.184168 7.839705 -83.898280 4.244639 5.626961 -74.038130 1.640280 4.066181 -43.923598 0.000006 -0.000000 0.000002 0.017767 7.965103 -87.550970 4.191581 5.611581 -73.496223 1.980479 4.391205 -48.534904 0.000000 0.000000 -0.000002 -3.409389 9.201271 -94.984948 4.867369 5.768056 -80.304829 3.515963 5.366379 -66.442113 -0.000000 0.000001 -0.000000 3.239123 2.162074 3.272739 -5.042167 -5.434181 58.823044 0.058401 90.112147 -0.057441 3.661450 32.294637 -9.474298 9.106942 2.361206 -7.190126 5.319316 -27.497170 21.239858 22.359015 -48.312967 -2.266555 -0.000002 0.000001 0.000001 3.135635 -1.376529 57.635342 2.063976 -3.869723 56.134903 1.427519 -3.357158 46.062314 0.000002 -0.000003 -0.000003 0.659799 -5.019313 51.637637 2.205728 -3.960962 58.210362 0.580176 -2.252988 28.878279 -0.000002 -0.000002 0.000000 1.151112 -5.471418 54.747023 1.742455 -3.633866 51.223885 0.787850 -2.593807 33.786774 0.000001 -0.000002 -0.000001 -3.363193 -9.408274 61.234340 1.837801 -3.708296 52.713074 1.358072 -3.288929 44.864094 -0.000002 -0.000003 -0.000001 -7.702789 12.027462 13.120139 16.667866 0.197003 0.057872 -4.804198 -5.991072 -8.134082 -0.103125 0.000001 0.000000 -0.000000 0.000000 -0.000000 -2.648431 -5.664038 -11.468228 11.813792 -5.162925 -0.749469 -1.314761 -2.641135 13.224560 -0.192980 0.000007 -0.000000 -0.000000 0.000000 -0.000000 
3.697875 94.957092 44.260715 -5.101922 2.822063 -1.488555 6.609939 1.266330 1.046464 4.395529 1.115871 0.256130 -0.778559 1.168901 0.395247 -0.788635 1.166338 -0.905708 -10.825588 -2.991524 -5.220594 0.000000 -0.000000 -0.000000 0.747027 -10.579828 -7.108644 -11.853441 -25.080441 -74.474976 0.000000 -26.007998 0.000014 22.649151 4.461294 23.823509 19.021167 -5.980322 3.417838 6.077285 27.397383 -13.859951 33.957146 47.707840 -12.623197 0.000001 -0.000001 -0.000000 5.082484 3.313634 -81.989789 3.900816 5.517531 -70.498405 3.265853 5.250735 -63.739469 0.000002 -0.000001 -0.000001 2.280541 7.618597 -79.219225 3.903848 5.518607 -70.529988 1.507112 3.923579 -42.012306 -0.000000 -0.000001 0.000002 0.519767 7.543656 -82.410788 3.854751 5.501095 -70.018844 1.821830 4.246155 -46.428180 -0.000000 -0.000001 -0.000001 -2.578176 8.407124 -89.501904 4.452424 5.682007 -76.147081 3.233652 5.234821 -63.386970 -0.000003 -0.000000 -0.000001 2.982203 1.017375 5.564598 3.842483 -3.338987 63.485283 -0.000020 71.269957 0.000027 8.742325 33.629891 -7.425003 5.393237 0.575375 -10.199075 5.010106 -26.899872 25.027760 10.878695 -38.581232 -6.021742 -0.000002 0.000000 -0.000001 2.884395 -0.898808 46.046755 1.556723 -3.476787 48.229496 0.940053 -2.807739 37.015988 0.000004 -0.000002 -0.000006 0.673747 -4.692268 38.360002 1.735598 -3.628360 51.115886 0.359191 -1.795132 22.627136 -0.000001 -0.000003 -0.000001 1.836803 -6.076338 40.940454 1.186612 -3.107453 41.791718 0.530392 -2.160324 27.585281 -0.000001 0.000000 -0.000004 -4.212544 -10.636089 46.662647 1.148065 -3.063829 41.075552 0.883358 -2.730982 35.842422 -0.000001 0.000001 -0.000001 -8.561719 11.787283 12.834548 17.165635 -0.393292 0.063765 -4.953704 -6.037386 -7.912542 -0.103125 -0.000000 0.000000 -0.000000 -0.000000 -0.000000 -3.041569 -5.734573 -11.698116 12.536496 -5.183219 -0.808304 -1.940369 -3.387184 13.460353 -0.189569 0.000001 0.000000 -0.000000 -0.000000 -0.000000 
3.656999 94.790253 44.461700 -4.672485 3.596674 -1.376889 6.494923 1.240645 1.019166 4.363582 1.095692 0.271397 -2.001517 1.139108 0.426120 -0.431207 1.171482 -0.858988 -10.176706 -2.916440 -5.018470 -0.000000 -0.000001 0.000000 0.725987 -10.535510 -7.337608 -13.537173 -25.870718 -75.383418 -0.000007 -26.530446 -0.000001 23.554314 3.532932 23.641706 18.591054 -5.205070 5.104189 5.732707 27.101637 -14.980167 22.626906 39.095928 -9.939759 0.000001 -0.000001 -0.000001 4.851728 3.341917 -77.364030 3.499364 5.359157 -66.264556 2.893842 5.050975 -59.597471 0.000001 -0.000000 -0.000002 2.392946 7.422771 -73.757171 3.512336 5.364816 -66.403454 1.357701 3.751457 -39.780132 -0.000001 0.000000 -0.000003 1.112096 7.217052 -76.410508 3.465116 5.344022 -65.897378 1.643038 4.069050 -43.962642 0.000001 0.000002 -0.000000 -1.574559 7.741496 -83.063611 3.972531 5.542287 -71.242828 2.905815 5.057963 -59.733447 0.000001 -0.000001 0.000001 2.881335 0.445564 6.980191 11.027606 0.140564 66.701005 -0.000002 56.723061 0.000010 11.096351 32.739883 -4.678735 2.064614 -0.671187 -12.979017 4.840297 -26.426502 28.410688 3.379580 -29.979210 -5.484460 0.000003 0.000000 -0.000001 2.779548 -0.395588 35.841162 1.158508 -3.075743 41.270370 0.587525 -2.266265 29.064893 0.000002 -0.000001 0.000002 0.626027 -4.535686 26.663949 1.359395 -3.290243 44.887129 0.206791 -1.373699 17.119873 0.000001 -0.000002 -0.000003 1.968844 -6.962039 28.724337 0.775056 -2.574589 33.502754 0.343571 -1.757245 22.123760 -0.000001 -0.000001 -0.000001 -5.944839 -11.585259 33.611221 0.659873 -2.391658 30.844400 0.543110 -2.184490 27.921088 0.000002 -0.000002 -0.000001 -9.354451 11.577003 12.672007 17.580750 -0.969511 0.070668 -5.052742 -6.079837 -7.755142 -0.103125 -0.000001 0.000000 -0.000000 -0.000001 -0.000000 -3.315236 -5.777393 -11.794992 13.100460 -5.240140 -0.844165 -2.492279 -4.093247 13.622732 -0.184822 -0.000000 0.000000 -0.000000 -0.000001 0.000000 
